<?xml version="1.0" encoding="UTF-8"?>
<svg viewBox="0 0 16 12" version="1.1" xmlns="http://www.w3.org/2000/svg" xmlns:xlink="http://www.w3.org/1999/xlink">
    <title>TableOfContent-Icon</title>
    <g id="Sydney-–-HelpKit" stroke="none" stroke-width="1" fill="none" fill-rule="evenodd">
        <g id="HelpKit-/-Table-of-Contents-UIButton-Spec" transform="translate(-436.000000, -420.000000)" fill="#fff" fill-rule="nonzero">
            <path d="M441.26679,421.917625 L451.215253,421.917625 C451.409879,421.917625 451.575094,421.851173 451.710897,421.718269 C451.8467,421.585365 451.914602,421.420685 451.914602,421.224228 C451.914602,421.029602 451.846929,420.864388 451.711584,420.728584 C451.576238,420.592781 451.410795,420.524879 451.215253,420.524879 L441.26679,420.524879 C441.071172,420.524879 440.905691,420.592552 440.770345,420.727898 C440.635,420.863243 440.567327,421.028687 440.567327,421.224228 C440.567327,421.419769 440.63479,421.584221 440.769716,421.717583 C440.904642,421.850945 441.070333,421.917625 441.26679,421.917625 Z M441.26679,426.418587 L451.215253,426.418587 C451.409879,426.418587 451.575094,426.351143 451.710897,426.216255 C451.8467,426.081367 451.914602,425.915695 451.914602,425.719238 C451.914602,425.524536 451.846929,425.360294 451.711584,425.226513 C451.576238,425.092731 451.410795,425.025841 451.215253,425.025841 L441.26679,425.025841 C441.071172,425.025841 440.905691,425.092522 440.770345,425.225883 C440.635,425.359245 440.567327,425.523697 440.567327,425.719238 C440.567327,425.91478 440.63479,426.080223 440.769716,426.215569 C440.904642,426.350914 441.070333,426.418587 441.26679,426.418587 Z M441.26679,430.913597 L451.215253,430.913597 C451.409879,430.913597 451.575094,430.846916 451.710897,430.713554 C451.8467,430.580193 451.914602,430.415741 451.914602,430.2202 C451.914602,430.025574 451.846929,429.860359 451.711584,429.724556 C451.576238,429.588753 451.410795,429.520851 451.215253,429.520851 L441.26679,429.520851 C441.071172,429.520851 440.905691,429.588524 440.770345,429.723869 C440.635,429.859215 440.567327,430.024658 440.567327,430.2202 C440.567327,430.415741 440.63479,430.580193 440.769716,430.713554 C440.904642,430.846916 441.070333,430.913597 441.26679,430.913597 Z M437.837339,422.251221 C438.121686,422.251221 438.36495,422.151142 438.567129,421.950985 C438.769308,421.750828 438.870397,421.508575 438.870397,421.224228 C438.870397,420.936829 438.769308,420.69305 438.567129,420.492893 C438.36495,420.292736 438.121686,420.192657 437.837339,420.192657 C437.553907,420.192657 437.311121,420.292736 437.10898,420.492893 C436.906839,420.69305 436.805768,420.936829 436.805768,421.224228 C436.805768,421.508575 436.906839,421.750828 437.10898,421.950985 C437.311121,422.151142 437.553907,422.251221 437.837339,422.251221 Z M437.837339,426.752182 C438.121686,426.752182 438.36495,426.650883 438.567129,426.448284 C438.769308,426.245686 438.870397,426.00267 438.870397,425.719238 C438.870397,425.435806 438.769308,425.19302 438.567129,424.990879 C438.36495,424.788738 438.121686,424.687668 437.837339,424.687668 C437.553907,424.687668 437.311121,424.788738 437.10898,424.990879 C436.906839,425.19302 436.805768,425.435806 436.805768,425.719238 C436.805768,426.00267 436.906839,426.245686 437.10898,426.448284 C437.311121,426.650883 437.553907,426.752182 437.837339,426.752182 Z M437.837339,431.251884 C438.121686,431.251884 438.36495,431.150795 438.567129,430.948616 C438.769308,430.746437 438.870397,430.503632 438.870397,430.2202 C438.870397,429.9328 438.769308,429.689022 438.567129,429.488865 C438.36495,429.288708 438.121686,429.188629 437.837339,429.188629 C437.553907,429.188629 437.311121,429.288708 437.10898,429.488865 C436.906839,429.689022 436.805768,429.9328 436.805768,430.2202 C436.805768,430.503632 436.906839,430.746437 437.10898,430.948616 C437.311121,431.150795 437.553907,431.251884 437.837339,431.251884 Z" id="TableOfContent-Icon"></path>
        </g>
    </g>
</svg>